<svg width="28" height="20" viewBox="0 0 28 20" fill="none" xmlns="http://www.w3.org/2000/svg">
<path d="M25.5391 0.15625H2.46094C1.10124 0.15625 0 1.22563 0 2.53125V16.7812C0 18.0946 1.10934 19.1562 2.46094 19.1562H25.5391C26.8874 19.1562 28 18.0991 28 16.7812V2.53125C28 1.22796 26.9031 0.15625 25.5391 0.15625ZM25.1944 1.73958C24.6916 2.22224 16.0389 10.5288 15.7402 10.8156C15.2753 11.2642 14.6573 11.5112 14 11.5112C13.3427 11.5112 12.7247 11.2642 12.2583 10.8141C12.0574 10.6212 3.50016 2.40638 2.80558 1.73958H25.1944ZM1.64062 16.459V2.85451L8.7302 9.66047L1.64062 16.459ZM2.80662 17.5729L9.89341 10.7771L11.0998 11.9352C11.8745 12.6828 12.9044 13.0946 14 13.0946C15.0956 13.0946 16.1255 12.6828 16.8987 11.9367L18.1066 10.7771L25.1934 17.5729H2.80662ZM26.3594 16.459L19.2698 9.66047L26.3594 2.85451V16.459Z" fill="#FFBB01"/>
</svg>
