<svg width="15" height="17" viewBox="0 0 15 17" fill="none" xmlns="http://www.w3.org/2000/svg">
<path d="M11.8611 10.5309C11.5535 10.1685 11.1826 9.9748 10.7894 9.9748C10.3995 9.9748 10.0254 10.165 9.70514 10.5273L8.70328 11.6576C8.62084 11.6073 8.53841 11.5607 8.45915 11.514C8.34502 11.4494 8.23722 11.3885 8.14528 11.3239C7.20682 10.6493 6.35397 9.77029 5.53599 8.6329C5.13968 8.06601 4.87336 7.58881 4.67996 7.10443C4.93994 6.83534 5.1809 6.55548 5.41551 6.28638C5.50428 6.18592 5.59306 6.08187 5.68183 5.9814C6.34763 5.22793 6.34763 4.25201 5.68183 3.49854L4.81629 2.51903C4.71801 2.4078 4.61655 2.29299 4.52144 2.17817C4.33121 1.95572 4.13147 1.72609 3.92539 1.51081C3.61786 1.16637 3.25009 0.983383 2.86329 0.983383C2.47649 0.983383 2.10238 1.16637 1.78533 1.51081C1.78216 1.5144 1.78216 1.5144 1.77899 1.51799L0.701036 2.74866C0.295217 3.20792 0.0637733 3.76764 0.013046 4.41706C-0.0630451 5.46474 0.209615 6.44066 0.418865 7.07932C0.932479 8.64726 1.69973 10.1004 2.84427 11.6576C4.23293 13.5341 5.90376 15.0159 7.81238 16.06C8.54158 16.4511 9.51492 16.9139 10.6024 16.9928C10.669 16.9964 10.7387 17 10.8021 17C11.5345 17 12.1496 16.7022 12.6315 16.1102C12.6346 16.103 12.641 16.0994 12.6442 16.0923C12.809 15.8662 12.9993 15.6617 13.199 15.4428C13.3353 15.2957 13.4748 15.1415 13.6111 14.98C13.925 14.6104 14.0899 14.1799 14.0899 13.7386C14.0899 13.2937 13.9219 12.8667 13.6016 12.5079L11.8611 10.5309ZM12.9961 14.3091C12.9929 14.3091 12.9929 14.3126 12.9961 14.3091C12.8724 14.4597 12.7456 14.5961 12.6093 14.7468C12.4032 14.9692 12.194 15.2025 11.9974 15.4644C11.6772 15.8519 11.2999 16.0349 10.8053 16.0349C10.7577 16.0349 10.707 16.0349 10.6595 16.0313C9.71782 15.9631 8.84278 15.5469 8.18649 15.1917C6.39201 14.2086 4.81629 12.8129 3.50689 11.044C2.42577 9.56936 1.7029 8.20594 1.22416 6.74205C0.929309 5.84865 0.821513 5.15259 0.86907 4.49599C0.900775 4.0762 1.04345 3.72817 1.30659 3.43037L2.38772 2.20688C2.54307 2.04183 2.70794 1.95213 2.86963 1.95213C3.06937 1.95213 3.23106 2.08847 3.33252 2.20329C3.33569 2.20688 3.33886 2.21046 3.34203 2.21405C3.53543 2.41857 3.71931 2.63025 3.91271 2.8563C4.011 2.97111 4.11245 3.08593 4.21391 3.20433L5.07944 4.18384C5.41551 4.56416 5.41551 4.91578 5.07944 5.29611C4.9875 5.40016 4.89873 5.50421 4.80678 5.60467C4.54046 5.91323 4.28683 6.20027 4.011 6.48013C4.00466 6.48731 3.99831 6.49089 3.99514 6.49807C3.72248 6.80663 3.77321 7.10802 3.83028 7.31254C3.83345 7.3233 3.83662 7.33406 3.83979 7.34483C4.06489 7.96196 4.38194 8.54321 4.86385 9.23568L4.86702 9.23927C5.74207 10.4592 6.66467 11.41 7.68239 12.1383C7.81238 12.2316 7.94554 12.307 8.07236 12.3787C8.18649 12.4433 8.29429 12.5043 8.38623 12.5689C8.39891 12.5761 8.41159 12.5868 8.42428 12.594C8.53207 12.655 8.63353 12.6837 8.73815 12.6837C9.0013 12.6837 9.16616 12.4971 9.22006 12.4361L10.3044 11.2091C10.4122 11.0871 10.5834 10.94 10.7831 10.94C10.9797 10.94 11.1414 11.0799 11.2396 11.2019C11.2428 11.2055 11.2428 11.2055 11.246 11.2091L12.9929 13.186C13.3195 13.552 13.3195 13.9287 12.9961 14.3091Z" fill="#949494"/>
<path d="M8.10722 4.04378C8.93789 4.20165 9.69246 4.64656 10.2948 5.32827C10.8972 6.00998 11.2872 6.86392 11.4299 7.80396C11.4648 8.04076 11.6455 8.20581 11.8515 8.20581C11.8769 8.20581 11.8991 8.20222 11.9245 8.19864C12.1591 8.15558 12.3144 7.90442 12.2764 7.63891C12.1052 6.50153 11.6296 5.46461 10.9036 4.64297C10.1775 3.82133 9.26127 3.28314 8.25624 3.08939C8.02162 3.04633 7.80286 3.22214 7.76164 3.48406C7.72043 3.74598 7.87261 4.00073 8.10722 4.04378Z" fill="#949494"/>
<path d="M14.9935 7.49904C14.7113 5.62612 13.9314 3.92184 12.7329 2.5656C11.5345 1.20935 10.0285 0.326713 8.37355 0.00738454C8.14211 -0.0392589 7.92335 0.140139 7.88213 0.40206C7.84409 0.667568 7.99944 0.915137 8.23405 0.961781C9.71149 1.24523 11.0589 2.03817 12.1305 3.24731C13.2022 4.46004 13.8997 5.98492 14.1501 7.65691C14.185 7.89371 14.3657 8.05876 14.5718 8.05876C14.5972 8.05876 14.6194 8.05517 14.6447 8.05158C14.8762 8.01211 15.0347 7.76096 14.9935 7.49904Z" fill="#949494"/>
</svg>
