<svg width="28" height="28" viewBox="0 0 28 28" fill="none" xmlns="http://www.w3.org/2000/svg">
<g clip-path="url(#clip0)">
<path d="M27.2801 7.34817L23.7993 10.829C22.8397 11.7886 21.2781 11.7886 20.3185 10.829L18.7364 9.24681C18.0093 8.51979 16.8263 8.52001 16.0996 9.24653L9.24176 16.1102C8.51305 16.8389 8.51294 18.0184 9.24176 18.7472C9.49661 19.002 10.2284 19.7338 10.8239 20.3294C11.7794 21.2847 11.7927 22.8414 10.823 23.811L7.34312 27.28C6.38346 28.2396 4.82196 28.2396 3.86488 27.2825C3.14869 26.5725 2.91769 26.3435 2.59656 26.0252C-0.864069 22.5646 -0.864069 16.9338 2.5964 13.4733L13.4624 2.60167C16.9311 -0.867111 22.5453 -0.867384 26.0143 2.60167L27.2801 3.86741C28.2398 4.82707 28.2398 6.38851 27.2801 7.34817ZM5.02261 26.1197C5.34248 26.4396 5.86289 26.4397 6.1838 26.1189L9.66368 22.6499C9.98431 22.3293 9.98431 21.8104 9.66368 21.4897L9.0835 20.9095L4.44544 25.5476L5.02261 26.1197ZM14.6229 3.76175L3.75681 14.6335C1.07942 17.3109 0.932254 21.515 3.30422 24.3683L7.92882 19.7437C6.71366 18.3661 6.7643 16.2671 8.08124 14.9501L14.9388 8.08677C14.9389 8.08672 14.939 8.08661 14.9391 8.08656C16.2546 6.77099 18.3535 6.71707 19.7328 7.93387L24.3575 3.30916C21.5133 0.941296 17.3187 1.06593 14.6229 3.76175ZM26.1199 5.02766L25.5398 4.44748L20.8987 9.0886L21.4788 9.66872C21.7987 9.98859 22.3192 9.98865 22.6391 9.66872L26.1199 6.18791C26.4398 5.86799 26.4398 5.34748 26.1199 5.02766Z" fill="#FFBB01"/>
</g>
<defs>
<clipPath id="clip0">
<rect width="28" height="28" fill="white" transform="matrix(1 0 0 -1 0 28)"/>
</clipPath>
</defs>
</svg>
