<svg width="16" height="18" viewBox="0 0 16 18" fill="none" xmlns="http://www.w3.org/2000/svg">
<path d="M8.16128 9.2211C8.17954 9.2211 8.1978 9.2211 8.21971 9.2211C8.22701 9.2211 8.23431 9.2211 8.24162 9.2211C8.25257 9.2211 8.26718 9.2211 8.27814 9.2211C9.34812 9.2035 10.2136 8.84089 10.8527 8.14737C12.2586 6.61951 12.0249 4.00033 11.9993 3.75038C11.908 1.874 10.9878 0.976296 10.2282 0.557367C9.66217 0.244051 9.00119 0.075071 8.26353 0.0609894H8.23797C8.23431 0.0609894 8.22701 0.0609894 8.22336 0.0609894H8.20145C7.7961 0.0609894 7 0.124357 6.23677 0.543286C5.46989 0.962214 4.53503 1.85992 4.44373 3.75038C4.41817 4.00033 4.18446 6.61951 5.5904 8.14737C6.22582 8.84089 7.0913 9.2035 8.16128 9.2211ZM5.41877 3.83839C5.41877 3.82783 5.42242 3.81727 5.42242 3.81023C5.54293 1.28609 7.4017 1.01502 8.1978 1.01502H8.2124C8.21971 1.01502 8.23066 1.01502 8.24162 1.01502C9.22761 1.03614 10.9038 1.42339 11.017 3.81023C11.017 3.82079 11.017 3.83135 11.0206 3.83839C11.0243 3.86303 11.2799 6.25691 10.1186 7.51722C9.65852 8.01712 9.04502 8.26355 8.23797 8.27059C8.23066 8.27059 8.22701 8.27059 8.21971 8.27059C8.2124 8.27059 8.20875 8.27059 8.20145 8.27059C7.39805 8.26355 6.78089 8.01712 6.32442 7.51722C5.16679 6.26395 5.41512 3.85951 5.41877 3.83839Z" fill="#949494"/>
<path d="M15.7241 13.5653C15.7241 13.5617 15.7241 13.5582 15.7241 13.5547C15.7241 13.5265 15.7205 13.4984 15.7205 13.4667C15.6985 12.7696 15.6511 11.1397 14.0662 10.6187C14.0552 10.6152 14.0406 10.6116 14.0297 10.6081C12.3827 10.2033 11.0133 9.28796 10.9987 9.2774C10.7759 9.12602 10.4692 9.17883 10.3121 9.39357C10.1551 9.60832 10.2099 9.90403 10.4326 10.0554C10.4947 10.0977 11.9481 11.0728 13.7667 11.5234C14.6176 11.8156 14.7126 12.6922 14.7381 13.4949C14.7381 13.5265 14.7381 13.5547 14.7418 13.5829C14.7454 13.8997 14.7235 14.389 14.6651 14.6707C14.0735 14.9945 11.7546 16.114 8.22694 16.114C4.7139 16.114 2.38039 14.991 1.78515 14.6671C1.72672 14.3855 1.70116 13.8962 1.70846 13.5793C1.70846 13.5512 1.71211 13.523 1.71211 13.4913C1.73767 12.6887 1.83262 11.8121 2.68349 11.5199C4.50209 11.0693 5.95551 10.0906 6.01759 10.0519C6.24036 9.90051 6.29513 9.6048 6.1381 9.39005C5.98108 9.17531 5.67432 9.1225 5.45156 9.27388C5.43696 9.28444 4.07483 10.1997 2.42056 10.6046C2.40595 10.6081 2.395 10.6116 2.38404 10.6152C0.799158 11.1397 0.751685 12.7696 0.729774 13.4632C0.729774 13.4949 0.729774 13.523 0.726122 13.5512C0.726122 13.5547 0.726122 13.5582 0.726122 13.5617C0.72247 13.7448 0.718819 14.6848 0.912364 15.1565C0.948883 15.248 1.01462 15.3255 1.10226 15.3783C1.21181 15.4487 3.83746 17.061 8.23059 17.061C12.6237 17.061 15.2494 15.4452 15.3589 15.3783C15.4429 15.3255 15.5123 15.248 15.5488 15.1565C15.7314 14.6883 15.7278 13.7483 15.7241 13.5653Z" fill="#949494"/>
</svg>
